<svg width="498" height="76" viewBox="0 0 498 76" fill="none" xmlns="http://www.w3.org/2000/svg">
<path d="M125.421 29.4091C125.27 27.7424 124.595 26.447 123.398 25.5227C122.217 24.5833 120.527 24.1136 118.33 24.1136C116.876 24.1136 115.664 24.303 114.694 24.6818C113.724 25.0606 112.997 25.5833 112.512 26.25C112.027 26.9015 111.777 27.6515 111.762 28.5C111.732 29.197 111.868 29.8106 112.171 30.3409C112.489 30.8712 112.944 31.3409 113.535 31.75C114.141 32.1439 114.868 32.4924 115.717 32.7955C116.565 33.0985 117.52 33.3636 118.58 33.5909L122.58 34.5C124.883 35 126.914 35.6667 128.671 36.5C130.444 37.3333 131.929 38.3258 133.126 39.4773C134.338 40.6288 135.254 41.9545 135.876 43.4545C136.497 44.9545 136.815 46.6364 136.83 48.5C136.815 51.4394 136.073 53.9621 134.603 56.0682C133.133 58.1742 131.02 59.7879 128.262 60.9091C125.52 62.0303 122.209 62.5909 118.33 62.5909C114.436 62.5909 111.042 62.0076 108.148 60.8409C105.254 59.6742 103.004 57.9015 101.398 55.5227C99.7923 53.1439 98.9666 50.1364 98.9211 46.5H109.694C109.785 48 110.186 49.25 110.898 50.25C111.61 51.25 112.588 52.0076 113.83 52.5227C115.088 53.0379 116.542 53.2955 118.194 53.2955C119.709 53.2955 120.997 53.0909 122.057 52.6818C123.133 52.2727 123.959 51.7045 124.535 50.9773C125.11 50.25 125.406 49.4167 125.421 48.4773C125.406 47.5985 125.133 46.8485 124.603 46.2273C124.073 45.5909 123.254 45.0455 122.148 44.5909C121.057 44.1212 119.664 43.6894 117.967 43.2955L113.103 42.1591C109.073 41.2348 105.898 39.7424 103.58 37.6818C101.262 35.6061 100.11 32.803 100.126 29.2727C100.11 26.3939 100.883 23.8712 102.444 21.7045C104.004 19.5379 106.164 17.8485 108.921 16.6364C111.679 15.4242 114.823 14.8182 118.353 14.8182C121.959 14.8182 125.088 15.4318 127.739 16.6591C130.406 17.8712 132.474 19.5758 133.944 21.7727C135.414 23.9697 136.164 26.5151 136.194 29.4091H125.421ZM162.217 27.0909V35.2727H140.194V27.0909H162.217ZM144.807 18.7273H155.921V51.0227C155.921 51.7045 156.027 52.2576 156.239 52.6818C156.467 53.0909 156.792 53.3864 157.217 53.5682C157.641 53.7348 158.148 53.8182 158.739 53.8182C159.164 53.8182 159.61 53.7803 160.08 53.7045C160.565 53.6136 160.929 53.5379 161.171 53.4773L162.853 61.5C162.323 61.6515 161.573 61.8409 160.603 62.0682C159.648 62.2955 158.504 62.4394 157.171 62.5C154.565 62.6212 152.33 62.3182 150.467 61.5909C148.618 60.8485 147.201 59.697 146.217 58.1364C145.247 56.5758 144.777 54.6136 144.807 52.25V18.7273ZM183.807 62.6591C180.141 62.6591 176.989 61.9091 174.353 60.4091C171.732 58.8939 169.709 56.7879 168.285 54.0909C166.876 51.3788 166.171 48.2348 166.171 44.6591C166.171 41.0682 166.876 37.9242 168.285 35.2273C169.709 32.5152 171.732 30.4091 174.353 28.9091C176.989 27.3939 180.141 26.6364 183.807 26.6364C187.474 26.6364 190.618 27.3939 193.239 28.9091C195.876 30.4091 197.898 32.5152 199.307 35.2273C200.732 37.9242 201.444 41.0682 201.444 44.6591C201.444 48.2348 200.732 51.3788 199.307 54.0909C197.898 56.7879 195.876 58.8939 193.239 60.4091C190.618 61.9091 187.474 62.6591 183.807 62.6591ZM183.876 54.2727C185.209 54.2727 186.338 53.8636 187.262 53.0455C188.186 52.2273 188.891 51.0909 189.376 49.6364C189.876 48.1818 190.126 46.5 190.126 44.5909C190.126 42.6515 189.876 40.9545 189.376 39.5C188.891 38.0455 188.186 36.9091 187.262 36.0909C186.338 35.2727 185.209 34.8636 183.876 34.8636C182.497 34.8636 181.33 35.2727 180.376 36.0909C179.436 36.9091 178.717 38.0455 178.217 39.5C177.732 40.9545 177.489 42.6515 177.489 44.5909C177.489 46.5 177.732 48.1818 178.217 49.6364C178.717 51.0909 179.436 52.2273 180.376 53.0455C181.33 53.8636 182.497 54.2727 183.876 54.2727ZM207.137 62V27.0909H217.932V33.4545H218.296C218.932 31.1515 219.97 29.4394 221.41 28.3182C222.849 27.1818 224.523 26.6136 226.432 26.6136C226.948 26.6136 227.478 26.6515 228.023 26.7273C228.569 26.7879 229.076 26.8864 229.546 27.0227V36.6818C229.016 36.5 228.319 36.3561 227.455 36.25C226.607 36.1439 225.849 36.0909 225.182 36.0909C223.864 36.0909 222.675 36.3864 221.614 36.9773C220.569 37.553 219.743 38.3636 219.137 39.4091C218.546 40.4394 218.251 41.6515 218.251 43.0455V62H207.137ZM248.58 62.6591C244.929 62.6591 241.777 61.9394 239.126 60.5C236.489 59.0455 234.459 56.9773 233.035 54.2955C231.626 51.5985 230.921 48.3939 230.921 44.6818C230.921 41.0758 231.633 37.9242 233.057 35.2273C234.482 32.5152 236.489 30.4091 239.08 28.9091C241.671 27.3939 244.724 26.6364 248.239 26.6364C250.724 26.6364 252.997 27.0227 255.057 27.7955C257.118 28.5682 258.898 29.7121 260.398 31.2273C261.898 32.7424 263.065 34.6136 263.898 36.8409C264.732 39.053 265.148 41.5909 265.148 44.4545V47.2273H234.807V40.7727H254.807C254.792 39.5909 254.512 38.5379 253.967 37.6136C253.421 36.6894 252.671 35.9697 251.717 35.4545C250.777 34.9242 249.694 34.6591 248.467 34.6591C247.224 34.6591 246.11 34.9394 245.126 35.5C244.141 36.0455 243.36 36.7955 242.785 37.75C242.209 38.6894 241.906 39.7576 241.876 40.9545V47.5227C241.876 48.947 242.156 50.197 242.717 51.2727C243.277 52.3333 244.073 53.1591 245.103 53.75C246.133 54.3409 247.36 54.6364 248.785 54.6364C249.77 54.6364 250.664 54.5 251.467 54.2273C252.27 53.9545 252.959 53.553 253.535 53.0227C254.11 52.4924 254.542 51.8409 254.83 51.0682L265.035 51.3636C264.61 53.6515 263.679 55.6439 262.239 57.3409C260.815 59.0227 258.944 60.3333 256.626 61.2727C254.307 62.197 251.626 62.6591 248.58 62.6591Z" fill="#222222"/>
<path d="M274.993 62V15.4545H284.834V35.9773H285.448L302.198 15.4545H313.993L296.72 36.2955L314.198 62H302.425L289.675 42.8636L284.834 48.7727V62H274.993ZM332.283 62.6818C328.692 62.6818 325.601 61.9545 323.01 60.5C320.434 59.0303 318.45 56.9545 317.056 54.2727C315.662 51.5758 314.965 48.3864 314.965 44.7045C314.965 41.1136 315.662 37.9621 317.056 35.25C318.45 32.5379 320.412 30.4242 322.942 28.9091C325.487 27.3939 328.472 26.6364 331.896 26.6364C334.2 26.6364 336.343 27.0076 338.328 27.75C340.328 28.4773 342.071 29.5758 343.556 31.0455C345.056 32.5152 346.222 34.3636 347.056 36.5909C347.889 38.803 348.306 41.3939 348.306 44.3636V47.0227H318.828V41.0227H339.192C339.192 39.6288 338.889 38.3939 338.283 37.3182C337.677 36.2424 336.836 35.4015 335.76 34.7955C334.7 34.1742 333.465 33.8636 332.056 33.8636C330.586 33.8636 329.283 34.2045 328.146 34.8864C327.025 35.553 326.146 36.4545 325.51 37.5909C324.874 38.7121 324.548 39.9621 324.533 41.3409V47.0455C324.533 48.7727 324.851 50.2652 325.487 51.5227C326.139 52.7803 327.056 53.75 328.237 54.4318C329.419 55.1136 330.821 55.4545 332.442 55.4545C333.518 55.4545 334.503 55.303 335.396 55C336.29 54.697 337.056 54.2424 337.692 53.6364C338.328 53.0303 338.813 52.2879 339.146 51.4091L348.101 52C347.646 54.1515 346.715 56.0303 345.306 57.6364C343.912 59.2273 342.109 60.4697 339.896 61.3636C337.7 62.2424 335.162 62.6818 332.283 62.6818ZM370.533 62.6818C366.942 62.6818 363.851 61.9545 361.26 60.5C358.684 59.0303 356.7 56.9545 355.306 54.2727C353.912 51.5758 353.215 48.3864 353.215 44.7045C353.215 41.1136 353.912 37.9621 355.306 35.25C356.7 32.5379 358.662 30.4242 361.192 28.9091C363.737 27.3939 366.722 26.6364 370.146 26.6364C372.45 26.6364 374.593 27.0076 376.578 27.75C378.578 28.4773 380.321 29.5758 381.806 31.0455C383.306 32.5152 384.472 34.3636 385.306 36.5909C386.139 38.803 386.556 41.3939 386.556 44.3636V47.0227H357.078V41.0227H377.442C377.442 39.6288 377.139 38.3939 376.533 37.3182C375.927 36.2424 375.086 35.4015 374.01 34.7955C372.95 34.1742 371.715 33.8636 370.306 33.8636C368.836 33.8636 367.533 34.2045 366.396 34.8864C365.275 35.553 364.396 36.4545 363.76 37.5909C363.124 38.7121 362.798 39.9621 362.783 41.3409V47.0455C362.783 48.7727 363.101 50.2652 363.737 51.5227C364.389 52.7803 365.306 53.75 366.487 54.4318C367.669 55.1136 369.071 55.4545 370.692 55.4545C371.768 55.4545 372.753 55.303 373.646 55C374.54 54.697 375.306 54.2424 375.942 53.6364C376.578 53.0303 377.063 52.2879 377.396 51.4091L386.351 52C385.896 54.1515 384.965 56.0303 383.556 57.6364C382.162 59.2273 380.359 60.4697 378.146 61.3636C375.95 62.2424 373.412 62.6818 370.533 62.6818ZM392.874 75.0909V27.0909H402.419V32.9545H402.851C403.275 32.0152 403.889 31.0606 404.692 30.0909C405.51 29.1061 406.571 28.2879 407.874 27.6364C409.192 26.9697 410.828 26.6364 412.783 26.6364C415.328 26.6364 417.677 27.303 419.828 28.6364C421.98 29.9545 423.7 31.947 424.987 34.6136C426.275 37.2652 426.919 40.5909 426.919 44.5909C426.919 48.4848 426.29 51.7727 425.033 54.4545C423.79 57.1212 422.093 59.1439 419.942 60.5227C417.806 61.8864 415.412 62.5682 412.76 62.5682C410.881 62.5682 409.283 62.2576 407.965 61.6364C406.662 61.0152 405.593 60.2348 404.76 59.2955C403.927 58.3409 403.29 57.3788 402.851 56.4091H402.556V75.0909H392.874ZM402.351 44.5455C402.351 46.6212 402.639 48.4318 403.215 49.9773C403.79 51.5227 404.624 52.7273 405.715 53.5909C406.806 54.4394 408.131 54.8636 409.692 54.8636C411.268 54.8636 412.601 54.4318 413.692 53.5682C414.783 52.6894 415.609 51.4773 416.169 49.9318C416.745 48.3712 417.033 46.5758 417.033 44.5455C417.033 42.5303 416.753 40.7576 416.192 39.2273C415.631 37.697 414.806 36.5 413.715 35.6364C412.624 34.7727 411.283 34.3409 409.692 34.3409C408.116 34.3409 406.783 34.7576 405.692 35.5909C404.616 36.4242 403.79 37.6061 403.215 39.1364C402.639 40.6667 402.351 42.4697 402.351 44.5455ZM449.283 62.6818C445.692 62.6818 442.601 61.9545 440.01 60.5C437.434 59.0303 435.45 56.9545 434.056 54.2727C432.662 51.5758 431.965 48.3864 431.965 44.7045C431.965 41.1136 432.662 37.9621 434.056 35.25C435.45 32.5379 437.412 30.4242 439.942 28.9091C442.487 27.3939 445.472 26.6364 448.896 26.6364C451.2 26.6364 453.343 27.0076 455.328 27.75C457.328 28.4773 459.071 29.5758 460.556 31.0455C462.056 32.5152 463.222 34.3636 464.056 36.5909C464.889 38.803 465.306 41.3939 465.306 44.3636V47.0227H435.828V41.0227H456.192C456.192 39.6288 455.889 38.3939 455.283 37.3182C454.677 36.2424 453.836 35.4015 452.76 34.7955C451.7 34.1742 450.465 33.8636 449.056 33.8636C447.586 33.8636 446.283 34.2045 445.146 34.8864C444.025 35.553 443.146 36.4545 442.51 37.5909C441.874 38.7121 441.548 39.9621 441.533 41.3409V47.0455C441.533 48.7727 441.851 50.2652 442.487 51.5227C443.139 52.7803 444.056 53.75 445.237 54.4318C446.419 55.1136 447.821 55.4545 449.442 55.4545C450.518 55.4545 451.503 55.303 452.396 55C453.29 54.697 454.056 54.2424 454.692 53.6364C455.328 53.0303 455.813 52.2879 456.146 51.4091L465.101 52C464.646 54.1515 463.715 56.0303 462.306 57.6364C460.912 59.2273 459.109 60.4697 456.896 61.3636C454.7 62.2424 452.162 62.6818 449.283 62.6818ZM471.624 62V27.0909H481.01V33.1818H481.374C482.01 31.0152 483.078 29.3788 484.578 28.2727C486.078 27.1515 487.806 26.5909 489.76 26.5909C490.245 26.5909 490.768 26.6212 491.328 26.6818C491.889 26.7424 492.381 26.8258 492.806 26.9318V35.5227C492.351 35.3864 491.722 35.2652 490.919 35.1591C490.116 35.053 489.381 35 488.715 35C487.29 35 486.018 35.3106 484.896 35.9318C483.79 36.5379 482.912 37.3864 482.26 38.4773C481.624 39.5682 481.306 40.8258 481.306 42.25V62H471.624Z" fill="#3294FF"/>
<path d="M40.2458 2.06634L0 24.8H8.47253V57.8662C8.47253 59.9335 10.3627 62 12.7093 62H25.4186V41.3336C25.4174 40.7904 25.5262 40.2524 25.7386 39.7504C25.9511 39.2483 26.2632 38.7921 26.6568 38.4081C27.0505 38.024 27.518 37.7195 28.0326 37.5122C28.5472 37.3049 29.0986 37.1988 29.6554 37.2H59.3097C61.6574 37.2 63.4733 39.0451 63.5465 41.3336V62H76.2558C76.8125 62.0012 77.364 61.895 77.8786 61.6877C78.3931 61.4804 78.8607 61.1759 79.2543 60.7918C79.648 60.4078 79.96 59.9516 80.1725 59.4495C80.385 58.9475 80.4938 58.4094 80.4926 57.8662V24.8H88.9651L48.7193 2.06634C46.9085 1.04459 45.1261 0.00297886 44.4825 2.86242e-06C43.8389 -0.00198114 42.0851 1.02772 40.2458 2.06634ZM29.6554 41.3336V45.4663H59.3097V41.3336H29.6554ZM29.6554 49.5999V53.7337H59.3097V49.5999H29.6554ZM29.6554 57.8662V62H59.3097V57.8662H29.6554Z" fill="black"/>
</svg>
