<svg width="89" height="62" viewBox="0 0 89 62" fill="none" xmlns="http://www.w3.org/2000/svg">
<path d="M40.2458 2.06634L0 24.8H8.47253V57.8662C8.47253 59.9335 10.3627 62 12.7093 62H25.4186V41.3336C25.4174 40.7904 25.5262 40.2524 25.7386 39.7504C25.9511 39.2483 26.2632 38.7921 26.6568 38.4081C27.0505 38.024 27.518 37.7195 28.0326 37.5122C28.5472 37.3049 29.0986 37.1988 29.6554 37.2H59.3097C61.6574 37.2 63.4733 39.0451 63.5465 41.3336V62H76.2558C76.8125 62.0012 77.364 61.895 77.8786 61.6877C78.3931 61.4804 78.8607 61.1759 79.2543 60.7918C79.648 60.4078 79.96 59.9516 80.1725 59.4495C80.385 58.9475 80.4938 58.4094 80.4926 57.8662V24.8H88.9651L48.7193 2.06634C46.9085 1.04459 45.1261 0.00297886 44.4825 2.86242e-06C43.8389 -0.00198114 42.0851 1.02772 40.2458 2.06634ZM29.6554 41.3336V45.4663H59.3097V41.3336H29.6554ZM29.6554 49.5999V53.7337H59.3097V49.5999H29.6554ZM29.6554 57.8662V62H59.3097V57.8662H29.6554Z" fill="black"/>
</svg>